<svg width="978" height="131" viewBox="0 0 978 131" fill="none" xmlns="http://www.w3.org/2000/svg">
<path d="M313.334 23.5104C313.357 24.983 314.569 26.1581 316.042 26.1351C317.514 26.1121 318.689 24.8997 318.666 23.4271C318.643 21.9545 317.431 20.7794 315.958 20.8024C314.486 20.8254 313.311 22.0378 313.334 23.5104ZM471.334 21.0417C471.357 22.5142 472.569 23.6894 474.042 23.6663C475.514 23.6433 476.689 22.4309 476.666 20.9583C476.643 19.4858 475.431 18.3106 473.958 18.3337C472.486 18.3567 471.311 19.5691 471.334 21.0417ZM316.008 23.9687L474.008 21.4999L473.992 20.5001L315.992 22.9688L316.008 23.9687Z" fill="black"/>
<path d="M101.334 23.5104C101.357 24.983 102.569 26.1581 104.042 26.1351C105.514 26.1121 106.689 24.8997 106.666 23.4271C106.643 21.9545 105.431 20.7794 103.958 20.8024C102.486 20.8254 101.311 22.0378 101.334 23.5104ZM259.334 21.0417C259.357 22.5142 260.569 23.6894 262.042 23.6663C263.514 23.6433 264.689 22.4309 264.666 20.9583C264.643 19.4858 263.431 18.3106 261.958 18.3337C260.486 18.3567 259.311 19.5691 259.334 21.0417ZM104.008 23.9687L262.008 21.4999L261.992 20.5001L103.992 22.9688L104.008 23.9687Z" fill="black"/>
<path d="M523.334 23.5104C523.357 24.983 524.569 26.1581 526.042 26.1351C527.514 26.1121 528.689 24.8997 528.666 23.4271C528.643 21.9545 527.431 20.7794 525.958 20.8024C524.486 20.8254 523.311 22.0378 523.334 23.5104ZM681.334 21.0417C681.357 22.5142 682.569 23.6894 684.042 23.6663C685.514 23.6433 686.689 22.4309 686.666 20.9583C686.643 19.4858 685.431 18.3106 683.958 18.3337C682.486 18.3567 681.311 19.5691 681.334 21.0417ZM526.008 23.9687L684.008 21.4999L683.992 20.5001L525.992 22.9688L526.008 23.9687Z" fill="black"/>
<path d="M733.334 23.5104C733.357 24.983 734.569 26.1581 736.042 26.1351C737.514 26.1121 738.689 24.8997 738.666 23.4271C738.643 21.9545 737.431 20.7794 735.958 20.8024C734.486 20.8254 733.311 22.0378 733.334 23.5104ZM891.334 21.0417C891.357 22.5142 892.569 23.6894 894.042 23.6663C895.514 23.6433 896.689 22.4309 896.666 20.9583C896.643 19.4858 895.431 18.3106 893.958 18.3337C892.486 18.3567 891.311 19.5691 891.334 21.0417ZM736.008 23.9687L894.008 21.4999L893.992 20.5001L735.992 22.9688L736.008 23.9687Z" fill="black"/>
<ellipse cx="289.5" cy="24" rx="23.5" ry="21" fill="#D9D9D9"/>
<path d="M283.697 34V32.7216L288.498 27.4659C289.062 26.8504 289.526 26.3153 289.89 25.8608C290.255 25.4015 290.525 24.9706 290.7 24.5682C290.88 24.161 290.97 23.7348 290.97 23.2898C290.97 22.7784 290.847 22.3357 290.6 21.9616C290.359 21.5876 290.028 21.2988 289.606 21.0952C289.185 20.8916 288.711 20.7898 288.186 20.7898C287.627 20.7898 287.139 20.9058 286.723 21.1378C286.311 21.3651 285.991 21.6847 285.764 22.0966C285.541 22.5085 285.43 22.9915 285.43 23.5455H283.754C283.754 22.6932 283.95 21.9451 284.343 21.3011C284.736 20.6572 285.271 20.1553 285.949 19.7955C286.63 19.4356 287.395 19.2557 288.243 19.2557C289.095 19.2557 289.85 19.4356 290.508 19.7955C291.166 20.1553 291.682 20.6406 292.056 21.2514C292.431 21.8622 292.618 22.5417 292.618 23.2898C292.618 23.8248 292.52 24.348 292.326 24.8594C292.137 25.366 291.806 25.9318 291.332 26.5568C290.863 27.1771 290.212 27.9347 289.379 28.8295L286.112 32.3239V32.4375H292.873V34H283.697ZM297.056 34.1136C296.706 34.1136 296.405 33.9882 296.154 33.7372C295.904 33.4863 295.778 33.1856 295.778 32.8352C295.778 32.4848 295.904 32.1842 296.154 31.9332C296.405 31.6823 296.706 31.5568 297.056 31.5568C297.407 31.5568 297.708 31.6823 297.958 31.9332C298.209 32.1842 298.335 32.4848 298.335 32.8352C298.335 33.0672 298.276 33.2803 298.157 33.4744C298.044 33.6686 297.89 33.8248 297.696 33.9432C297.506 34.0568 297.293 34.1136 297.056 34.1136Z" fill="black"/>
<ellipse cx="75.5" cy="21" rx="23.5" ry="21" fill="#929090"/>
<path d="M75.8197 15.8182V26H74.5868V17.1108H74.5271L72.0413 18.7614V17.5085L74.5868 15.8182H75.8197ZM80.9069 26.0795C80.6616 26.0795 80.4512 25.9917 80.2755 25.8161C80.0998 25.6404 80.012 25.4299 80.012 25.1847C80.012 24.9394 80.0998 24.7289 80.2755 24.5533C80.4512 24.3776 80.6616 24.2898 80.9069 24.2898C81.1522 24.2898 81.3626 24.3776 81.5383 24.5533C81.7139 24.7289 81.8018 24.9394 81.8018 25.1847C81.8018 25.3471 81.7603 25.4962 81.6775 25.6321C81.5979 25.768 81.4902 25.8774 81.3543 25.9602C81.2218 26.0398 81.0726 26.0795 80.9069 26.0795Z" fill="black"/>
<ellipse cx="500.5" cy="23" rx="23.5" ry="21" fill="#D9D9D9"/>
<path d="M499.524 33.1989C498.586 33.1989 497.751 33.0379 497.017 32.7159C496.288 32.3939 495.708 31.9465 495.277 31.3736C494.851 30.7959 494.619 30.1259 494.581 29.3636H496.371C496.408 29.8324 496.569 30.2372 496.854 30.5781C497.138 30.9143 497.509 31.1747 497.969 31.3594C498.428 31.544 498.937 31.6364 499.496 31.6364C500.121 31.6364 500.675 31.5275 501.157 31.3097C501.64 31.0919 502.019 30.7888 502.294 30.4006C502.568 30.0123 502.706 29.5625 502.706 29.0511C502.706 28.5161 502.573 28.045 502.308 27.6378C502.043 27.2259 501.655 26.9039 501.143 26.6719C500.632 26.4399 500.007 26.3239 499.268 26.3239H498.104V24.7614H499.268C499.846 24.7614 500.353 24.6572 500.788 24.4489C501.229 24.2405 501.572 23.947 501.818 23.5682C502.069 23.1894 502.194 22.7443 502.194 22.233C502.194 21.7405 502.086 21.312 501.868 20.9474C501.65 20.5829 501.342 20.2988 500.944 20.0952C500.551 19.8916 500.087 19.7898 499.552 19.7898C499.05 19.7898 498.577 19.8821 498.132 20.0668C497.692 20.2467 497.332 20.5095 497.052 20.8551C496.773 21.196 496.622 21.608 496.598 22.0909H494.893C494.922 21.3286 495.151 20.661 495.582 20.0881C496.013 19.5104 496.577 19.0606 497.273 18.7386C497.973 18.4167 498.743 18.2557 499.581 18.2557C500.48 18.2557 501.252 18.438 501.896 18.8026C502.54 19.1624 503.035 19.6383 503.381 20.2301C503.726 20.822 503.899 21.4612 503.899 22.1477C503.899 22.9669 503.684 23.6652 503.253 24.2429C502.827 24.8205 502.247 25.2206 501.513 25.4432V25.5568C502.431 25.7083 503.148 26.099 503.665 26.7287C504.181 27.3537 504.439 28.1278 504.439 29.0511C504.439 29.8419 504.223 30.5521 503.792 31.1818C503.366 31.8068 502.784 32.2992 502.045 32.6591C501.307 33.0189 500.466 33.1989 499.524 33.1989ZM508.144 33.1136C507.794 33.1136 507.493 32.9882 507.242 32.7372C506.991 32.4863 506.866 32.1856 506.866 31.8352C506.866 31.4848 506.991 31.1842 507.242 30.9332C507.493 30.6823 507.794 30.5568 508.144 30.5568C508.495 30.5568 508.795 30.6823 509.046 30.9332C509.297 31.1842 509.423 31.4848 509.423 31.8352C509.423 32.0672 509.364 32.2803 509.245 32.4744C509.132 32.6686 508.978 32.8248 508.784 32.9432C508.594 33.0568 508.381 33.1136 508.144 33.1136Z" fill="black"/>
<ellipse cx="711.5" cy="21" rx="23.5" ry="21" fill="#D9D9D9"/>
<path d="M702.583 28.017V26.5682L708.975 16.4545H710.026V18.6989H709.316L704.486 26.3409V26.4545H713.094V28.017H702.583ZM709.429 31V27.5767V26.902V16.4545H711.105V31H709.429ZM716.322 31.1136C715.972 31.1136 715.671 30.9882 715.42 30.7372C715.169 30.4863 715.044 30.1856 715.044 29.8352C715.044 29.4848 715.169 29.1842 715.42 28.9332C715.671 28.6823 715.972 28.5568 716.322 28.5568C716.672 28.5568 716.973 28.6823 717.224 28.9332C717.475 29.1842 717.6 29.4848 717.6 29.8352C717.6 30.0672 717.541 30.2803 717.423 30.4744C717.309 30.6686 717.155 30.8248 716.961 30.9432C716.772 31.0568 716.559 31.1136 716.322 31.1136ZM721.83 31.1136C721.48 31.1136 721.179 30.9882 720.928 30.7372C720.677 30.4863 720.551 30.1856 720.551 29.8352C720.551 29.4848 720.677 29.1842 720.928 28.9332C721.179 28.6823 721.48 28.5568 721.83 28.5568C722.18 28.5568 722.481 28.6823 722.732 28.9332C722.983 29.1842 723.108 29.4848 723.108 29.8352C723.108 30.0672 723.049 30.2803 722.931 30.4744C722.817 30.6686 722.663 30.8248 722.469 30.9432C722.28 31.0568 722.067 31.1136 721.83 31.1136Z" fill="black"/>
<ellipse cx="920.5" cy="21" rx="23.5" ry="21" fill="#D9D9D9"/>
<path d="M919.487 31.1989C918.653 31.1989 917.903 31.0331 917.235 30.7017C916.568 30.3703 916.033 29.9157 915.63 29.3381C915.228 28.7604 915.008 28.1023 914.97 27.3636H916.674C916.74 28.0218 917.039 28.5663 917.569 28.9972C918.104 29.4233 918.743 29.6364 919.487 29.6364C920.083 29.6364 920.614 29.4967 921.078 29.2173C921.546 28.938 921.913 28.5545 922.178 28.0668C922.448 27.5743 922.583 27.018 922.583 26.3977C922.583 25.7633 922.444 25.1974 922.164 24.7003C921.89 24.1984 921.511 23.803 921.028 23.5142C920.545 23.2254 919.993 23.0786 919.373 23.0739C918.928 23.0691 918.471 23.1378 918.002 23.2798C917.534 23.4171 917.148 23.5947 916.845 23.8125L915.197 23.6136L916.078 16.4545H923.634V18.017H917.555L917.044 22.3068H917.129C917.427 22.0701 917.801 21.8736 918.251 21.7173C918.701 21.5611 919.169 21.483 919.657 21.483C920.547 21.483 921.34 21.696 922.036 22.1222C922.737 22.5436 923.286 23.1212 923.684 23.8551C924.087 24.589 924.288 25.4271 924.288 26.3693C924.288 27.2973 924.079 28.1259 923.663 28.8551C923.251 29.5795 922.683 30.1525 921.958 30.5739C921.234 30.9905 920.41 31.1989 919.487 31.1989ZM927.812 31.1136C927.462 31.1136 927.161 30.9882 926.91 30.7372C926.659 30.4863 926.534 30.1856 926.534 29.8352C926.534 29.4848 926.659 29.1842 926.91 28.9332C927.161 28.6823 927.462 28.5568 927.812 28.5568C928.163 28.5568 928.463 28.6823 928.714 28.9332C928.965 29.1842 929.091 29.4848 929.091 29.8352C929.091 30.0672 929.032 30.2803 928.913 30.4744C928.8 30.6686 928.646 30.8248 928.452 30.9432C928.262 31.0568 928.049 31.1136 927.812 31.1136Z" fill="black"/>
<path d="M243.923 77V62.4545H248.838C249.979 62.4545 250.912 62.6605 251.637 63.0724C252.366 63.4796 252.905 64.0312 253.256 64.7273C253.606 65.4233 253.781 66.1998 253.781 67.0568C253.781 67.9138 253.606 68.6927 253.256 69.3935C252.91 70.0942 252.375 70.6529 251.651 71.0696C250.926 71.4815 249.998 71.6875 248.867 71.6875H245.344V70.125H248.81C249.591 70.125 250.218 69.9901 250.692 69.7202C251.165 69.4503 251.509 69.0857 251.722 68.6264C251.94 68.1624 252.048 67.6392 252.048 67.0568C252.048 66.4744 251.94 65.9536 251.722 65.4943C251.509 65.035 251.163 64.6752 250.685 64.4148C250.207 64.1496 249.572 64.017 248.781 64.017H245.685V77H243.923ZM256.392 77V66.0909H258.068V77H256.392ZM257.244 64.2727C256.917 64.2727 256.635 64.1615 256.399 63.9389C256.167 63.7164 256.051 63.4489 256.051 63.1364C256.051 62.8239 256.167 62.5563 256.399 62.3338C256.635 62.1113 256.917 62 257.244 62C257.57 62 257.85 62.1113 258.082 62.3338C258.319 62.5563 258.437 62.8239 258.437 63.1364C258.437 63.4489 258.319 63.7164 258.082 63.9389C257.85 64.1615 257.57 64.2727 257.244 64.2727ZM262.814 62.4545V77H261.138V62.4545H262.814ZM265.884 77V66.0909H267.56V77H265.884ZM266.736 64.2727C266.409 64.2727 266.128 64.1615 265.891 63.9389C265.659 63.7164 265.543 63.4489 265.543 63.1364C265.543 62.8239 265.659 62.5563 265.891 62.3338C266.128 62.1113 266.409 62 266.736 62C267.063 62 267.342 62.1113 267.574 62.3338C267.811 62.5563 267.929 62.8239 267.929 63.1364C267.929 63.4489 267.811 63.7164 267.574 63.9389C267.342 64.1615 267.063 64.2727 266.736 64.2727ZM272.306 70.4375V77H270.63V62.4545H272.306V67.7955H272.448C272.704 67.232 273.087 66.7846 273.599 66.4531C274.115 66.117 274.801 65.9489 275.658 65.9489C276.402 65.9489 277.053 66.098 277.611 66.3963C278.17 66.6899 278.603 67.142 278.911 67.7528C279.224 68.3589 279.38 69.1307 279.38 70.0682V77H277.704V70.1818C277.704 69.3153 277.479 68.6454 277.029 68.1719C276.584 67.6937 275.966 67.4545 275.175 67.4545C274.626 67.4545 274.134 67.5705 273.698 67.8026C273.267 68.0346 272.926 68.3731 272.675 68.8182C272.429 69.2633 272.306 69.803 272.306 70.4375ZM288.298 77V62.4545H293.213C294.354 62.4545 295.287 62.6605 296.012 63.0724C296.741 63.4796 297.28 64.0312 297.631 64.7273C297.981 65.4233 298.156 66.1998 298.156 67.0568C298.156 67.9138 297.981 68.6927 297.631 69.3935C297.285 70.0942 296.75 70.6529 296.026 71.0696C295.301 71.4815 294.373 71.6875 293.242 71.6875H289.719V70.125H293.185C293.966 70.125 294.593 69.9901 295.067 69.7202C295.54 69.4503 295.884 69.0857 296.097 68.6264C296.315 68.1624 296.423 67.6392 296.423 67.0568C296.423 66.4744 296.315 65.9536 296.097 65.4943C295.884 65.035 295.538 64.6752 295.06 64.4148C294.582 64.1496 293.947 64.017 293.156 64.017H290.06V77H288.298ZM303.977 77.2557C303.285 77.2557 302.658 77.1255 302.095 76.8651C301.531 76.5999 301.084 76.2188 300.752 75.7216C300.421 75.2197 300.255 74.6136 300.255 73.9034C300.255 73.2784 300.378 72.7718 300.624 72.3835C300.871 71.9905 301.2 71.6828 301.612 71.4602C302.024 71.2377 302.478 71.072 302.975 70.9631C303.477 70.8494 303.981 70.7595 304.488 70.6932C305.151 70.608 305.688 70.544 306.1 70.5014C306.517 70.4541 306.82 70.3759 307.009 70.267C307.204 70.1581 307.301 69.9687 307.301 69.6989V69.642C307.301 68.9413 307.109 68.3968 306.725 68.0085C306.347 67.6203 305.771 67.4261 304.999 67.4261C304.199 67.4261 303.572 67.6013 303.117 67.9517C302.663 68.3021 302.343 68.6761 302.159 69.0739L300.568 68.5057C300.852 67.8428 301.231 67.3267 301.704 66.9574C302.182 66.5833 302.703 66.3229 303.267 66.1761C303.835 66.0246 304.393 65.9489 304.943 65.9489C305.293 65.9489 305.695 65.9915 306.15 66.0767C306.609 66.1572 307.052 66.3253 307.478 66.581C307.909 66.8366 308.267 67.2225 308.551 67.7386C308.835 68.2547 308.977 68.946 308.977 69.8125V77H307.301V75.5227H307.215C307.102 75.7595 306.912 76.0128 306.647 76.2827C306.382 76.5526 306.029 76.7822 305.589 76.9716C305.149 77.161 304.611 77.2557 303.977 77.2557ZM304.232 75.75C304.895 75.75 305.454 75.6198 305.909 75.3594C306.368 75.099 306.713 74.7628 306.945 74.3509C307.182 73.9389 307.301 73.5057 307.301 73.0511V71.517C307.23 71.6023 307.073 71.6804 306.832 71.7514C306.595 71.8177 306.32 71.8769 306.008 71.929C305.7 71.9763 305.4 72.0189 305.106 72.0568C304.817 72.09 304.583 72.1184 304.403 72.142C303.967 72.1989 303.56 72.2912 303.181 72.419C302.807 72.5421 302.504 72.7292 302.272 72.9801C302.045 73.2263 301.931 73.5625 301.931 73.9886C301.931 74.571 302.147 75.0114 302.578 75.3097C303.013 75.6032 303.565 75.75 304.232 75.75ZM313.599 73.0227L313.57 70.9489H313.911L318.684 66.0909H320.758L315.672 71.233H315.53L313.599 73.0227ZM312.036 77V62.4545H313.712V77H312.036ZM318.968 77L314.706 71.6023L315.9 70.4375L321.099 77H318.968ZM327.04 77.2273C325.988 77.2273 325.082 76.9953 324.319 76.5312C323.562 76.0625 322.977 75.4091 322.565 74.571C322.158 73.7282 321.954 72.7481 321.954 71.6307C321.954 70.5133 322.158 69.5284 322.565 68.6761C322.977 67.8191 323.55 67.1515 324.284 66.6733C325.023 66.1903 325.884 65.9489 326.869 65.9489C327.437 65.9489 327.998 66.0436 328.552 66.233C329.106 66.4223 329.611 66.7301 330.065 67.1562C330.52 67.5777 330.882 68.1364 331.152 68.8324C331.422 69.5284 331.557 70.3854 331.557 71.4034V72.1136H323.148V70.6648H329.852C329.852 70.0492 329.729 69.5 329.483 69.017C329.241 68.5341 328.896 68.1529 328.446 67.8736C328.001 67.5942 327.475 67.4545 326.869 67.4545C326.202 67.4545 325.624 67.6203 325.136 67.9517C324.653 68.2784 324.282 68.7045 324.021 69.2301C323.761 69.7557 323.631 70.3191 323.631 70.9205V71.8864C323.631 72.7102 323.773 73.4086 324.057 73.9815C324.345 74.5497 324.746 74.983 325.257 75.2812C325.768 75.5748 326.363 75.7216 327.04 75.7216C327.48 75.7216 327.878 75.66 328.233 75.5369C328.593 75.4091 328.903 75.2197 329.163 74.9688C329.424 74.7131 329.625 74.3958 329.767 74.017L331.386 74.4716C331.216 75.0208 330.929 75.5038 330.527 75.9205C330.124 76.3324 329.627 76.6544 329.035 76.8864C328.443 77.1136 327.778 77.2273 327.04 77.2273ZM338.851 66.0909V67.5114H333.197V66.0909H338.851ZM334.845 63.4773H336.521V73.875C336.521 74.3485 336.59 74.7036 336.727 74.9403C336.869 75.1723 337.049 75.3286 337.267 75.4091C337.489 75.4848 337.724 75.5227 337.97 75.5227C338.155 75.5227 338.306 75.5133 338.425 75.4943C338.543 75.4706 338.638 75.4517 338.709 75.4375L339.05 76.9432C338.936 76.9858 338.777 77.0284 338.574 77.071C338.37 77.1184 338.112 77.142 337.8 77.142C337.326 77.142 336.862 77.0402 336.407 76.8366C335.958 76.633 335.584 76.3229 335.285 75.9062C334.992 75.4896 334.845 74.964 334.845 74.3295V63.4773Z" fill="black"/>
<path d="M47.3864 78V63.4545H52.3011C53.4422 63.4545 54.375 63.6605 55.0994 64.0724C55.8286 64.4796 56.3684 65.0312 56.7188 65.7273C57.0691 66.4233 57.2443 67.1998 57.2443 68.0568C57.2443 68.9138 57.0691 69.6927 56.7188 70.3935C56.3731 71.0942 55.8381 71.6529 55.1136 72.0696C54.3892 72.4815 53.4612 72.6875 52.3295 72.6875H48.8068V71.125H52.2727C53.054 71.125 53.6813 70.9901 54.1548 70.7202C54.6283 70.4503 54.9716 70.0857 55.1847 69.6264C55.4025 69.1624 55.5114 68.6392 55.5114 68.0568C55.5114 67.4744 55.4025 66.9536 55.1847 66.4943C54.9716 66.035 54.6259 65.6752 54.1477 65.4148C53.6695 65.1496 53.035 65.017 52.2443 65.017H49.1477V78H47.3864ZM59.8544 78V67.0909H61.5305V78H59.8544ZM60.7067 65.2727C60.38 65.2727 60.0982 65.1615 59.8615 64.9389C59.6295 64.7164 59.5135 64.4489 59.5135 64.1364C59.5135 63.8239 59.6295 63.5563 59.8615 63.3338C60.0982 63.1113 60.38 63 60.7067 63C61.0334 63 61.3127 63.1113 61.5447 63.3338C61.7815 63.5563 61.8999 63.8239 61.8999 64.1364C61.8999 64.4489 61.7815 64.7164 61.5447 64.9389C61.3127 65.1615 61.0334 65.2727 60.7067 65.2727ZM66.2766 63.4545V78H64.6005V63.4545H66.2766ZM69.3466 78V67.0909H71.0227V78H69.3466ZM70.1989 65.2727C69.8722 65.2727 69.5904 65.1615 69.3537 64.9389C69.1217 64.7164 69.0057 64.4489 69.0057 64.1364C69.0057 63.8239 69.1217 63.5563 69.3537 63.3338C69.5904 63.1113 69.8722 63 70.1989 63C70.5256 63 70.8049 63.1113 71.0369 63.3338C71.2737 63.5563 71.392 63.8239 71.392 64.1364C71.392 64.4489 71.2737 64.7164 71.0369 64.9389C70.8049 65.1615 70.5256 65.2727 70.1989 65.2727ZM75.7688 71.4375V78H74.0927V63.4545H75.7688V68.7955H75.9109C76.1665 68.232 76.5501 67.7846 77.0614 67.4531C77.5775 67.117 78.2641 66.9489 79.1211 66.9489C79.8645 66.9489 80.5155 67.098 81.0742 67.3963C81.6329 67.6899 82.0662 68.142 82.3739 68.7528C82.6864 69.3589 82.8427 70.1307 82.8427 71.0682V78H81.1665V71.1818C81.1665 70.3153 80.9416 69.6454 80.4918 69.1719C80.0468 68.6937 79.4289 68.4545 78.6381 68.4545C78.0889 68.4545 77.5965 68.5705 77.1609 68.8026C76.73 69.0346 76.3891 69.3731 76.1381 69.8182C75.8919 70.2633 75.7688 70.803 75.7688 71.4375ZM8.89027 102V87.4545H13.805C14.9461 87.4545 15.8789 87.6605 16.6033 88.0724C17.3325 88.4796 17.8723 89.0312 18.2227 89.7273C18.573 90.4233 18.7482 91.1998 18.7482 92.0568C18.7482 92.9138 18.573 93.6927 18.2227 94.3935C17.877 95.0942 17.342 95.6529 16.6175 96.0696C15.8931 96.4815 14.9651 96.6875 13.8335 96.6875H10.3107V95.125H13.7766C14.5579 95.125 15.1853 94.9901 15.6587 94.7202C16.1322 94.4503 16.4755 94.0857 16.6886 93.6264C16.9064 93.1624 17.0153 92.6392 17.0153 92.0568C17.0153 91.4744 16.9064 90.9536 16.6886 90.4943C16.4755 90.035 16.1299 89.6752 15.6516 89.4148C15.1734 89.1496 14.5389 89.017 13.7482 89.017H10.6516V102H8.89027ZM25.815 102.227C24.7638 102.227 23.8571 101.995 23.0948 101.531C22.3372 101.062 21.7525 100.409 21.3406 99.571C20.9334 98.7282 20.7298 97.7481 20.7298 96.6307C20.7298 95.5133 20.9334 94.5284 21.3406 93.6761C21.7525 92.8191 22.3254 92.1515 23.0593 91.6733C23.7979 91.1903 24.6597 90.9489 25.6445 90.9489C26.2127 90.9489 26.7738 91.0436 27.3278 91.233C27.8817 91.4223 28.386 91.7301 28.8406 92.1562C29.2951 92.5777 29.6573 93.1364 29.9272 93.8324C30.1971 94.5284 30.332 95.3854 30.332 96.4034V97.1136H21.9229V95.6648H28.6275C28.6275 95.0492 28.5044 94.5 28.2582 94.017C28.0167 93.5341 27.671 93.1529 27.2212 92.8736C26.7762 92.5942 26.2506 92.4545 25.6445 92.4545C24.9769 92.4545 24.3993 92.6203 23.9116 92.9517C23.4286 93.2784 23.0569 93.7045 22.7965 94.2301C22.5361 94.7557 22.4059 95.3191 22.4059 95.9205V96.8864C22.4059 97.7102 22.5479 98.4086 22.832 98.9815C23.1209 99.5497 23.521 99.983 24.0323 100.281C24.5437 100.575 25.1379 100.722 25.815 100.722C26.2553 100.722 26.6531 100.66 27.0082 100.537C27.368 100.409 27.6781 100.22 27.9386 99.9688C28.199 99.7131 28.4002 99.3958 28.5423 99.017L30.1616 99.4716C29.9911 100.021 29.7047 100.504 29.3022 100.92C28.8997 101.332 28.4026 101.654 27.8107 101.886C27.2189 102.114 26.5536 102.227 25.815 102.227ZM34.5579 95.4375V102H32.8817V91.0909H34.5011V92.7955H34.6431C34.8988 92.2415 35.2871 91.7964 35.8079 91.4602C36.3287 91.1193 37.0011 90.9489 37.8249 90.9489C38.5636 90.9489 39.2099 91.1004 39.7638 91.4034C40.3178 91.7017 40.7487 92.1562 41.0565 92.767C41.3642 93.3731 41.5181 94.1402 41.5181 95.0682V102H39.842V95.1818C39.842 94.3248 39.6194 93.6572 39.1744 93.179C38.7293 92.696 38.1185 92.4545 37.342 92.4545C36.8069 92.4545 36.3287 92.5705 35.9073 92.8026C35.4906 93.0346 35.1616 93.3731 34.9201 93.8182C34.6786 94.2633 34.5579 94.803 34.5579 95.4375ZM48.9844 106.318C48.1747 106.318 47.4787 106.214 46.8963 106.006C46.3139 105.802 45.8286 105.532 45.4403 105.196C45.0568 104.865 44.7514 104.509 44.5241 104.131L45.8594 103.193C46.0109 103.392 46.2027 103.619 46.4347 103.875C46.6667 104.135 46.9839 104.36 47.3864 104.55C47.7936 104.744 48.3262 104.841 48.9844 104.841C49.8651 104.841 50.5919 104.628 51.1648 104.202C51.7377 103.776 52.0241 103.108 52.0241 102.199V99.983H51.8821C51.759 100.182 51.5838 100.428 51.3565 100.722C51.134 101.01 50.812 101.268 50.3906 101.496C49.974 101.718 49.4105 101.83 48.7003 101.83C47.8196 101.83 47.0289 101.621 46.3281 101.205C45.6321 100.788 45.0805 100.182 44.6733 99.3864C44.2708 98.5909 44.0696 97.625 44.0696 96.4886C44.0696 95.3712 44.2661 94.3982 44.6591 93.5696C45.0521 92.7363 45.599 92.0923 46.2997 91.6378C47.0005 91.1785 47.8101 90.9489 48.7287 90.9489C49.4389 90.9489 50.0024 91.0672 50.419 91.304C50.8404 91.536 51.1624 91.8011 51.3849 92.0994C51.6122 92.393 51.7874 92.6345 51.9105 92.8239H52.081V91.0909H53.7003V102.312C53.7003 103.25 53.4872 104.012 53.0611 104.599C52.6397 105.191 52.0715 105.625 51.3565 105.899C50.6463 106.179 49.8556 106.318 48.9844 106.318ZM48.9276 100.324C49.5999 100.324 50.1681 100.17 50.6321 99.8622C51.0961 99.5545 51.4489 99.1117 51.6903 98.5341C51.9318 97.9564 52.0526 97.2652 52.0526 96.4602C52.0526 95.6742 51.9342 94.9806 51.6974 94.3793C51.4607 93.7779 51.1103 93.3068 50.6463 92.9659C50.1823 92.625 49.6094 92.4545 48.9276 92.4545C48.2173 92.4545 47.6255 92.6345 47.152 92.9943C46.6832 93.3542 46.3305 93.8371 46.0938 94.4432C45.8617 95.0492 45.7457 95.7216 45.7457 96.4602C45.7457 97.2178 45.8641 97.8878 46.1009 98.4702C46.3423 99.0478 46.6974 99.5024 47.1662 99.8338C47.6397 100.161 48.2268 100.324 48.9276 100.324ZM59.9787 102.256C59.2874 102.256 58.66 102.125 58.0966 101.865C57.5331 101.6 57.0857 101.219 56.7543 100.722C56.4228 100.22 56.2571 99.6136 56.2571 98.9034C56.2571 98.2784 56.3802 97.7718 56.6264 97.3835C56.8726 96.9905 57.2017 96.6828 57.6136 96.4602C58.0256 96.2377 58.4801 96.072 58.9773 95.9631C59.4792 95.8494 59.9834 95.7595 60.4901 95.6932C61.1529 95.608 61.6903 95.544 62.1023 95.5014C62.5189 95.4541 62.822 95.3759 63.0114 95.267C63.2055 95.1581 63.3026 94.9687 63.3026 94.6989V94.642C63.3026 93.9413 63.1108 93.3968 62.7273 93.0085C62.3485 92.6203 61.7732 92.4261 61.0014 92.4261C60.2012 92.4261 59.5739 92.6013 59.1193 92.9517C58.6648 93.3021 58.3452 93.6761 58.1605 94.0739L56.5696 93.5057C56.8537 92.8428 57.2325 92.3267 57.706 91.9574C58.1842 91.5833 58.705 91.3229 59.2685 91.1761C59.8366 91.0246 60.3954 90.9489 60.9446 90.9489C61.295 90.9489 61.6974 90.9915 62.152 91.0767C62.6113 91.1572 63.054 91.3253 63.4801 91.581C63.911 91.8366 64.2685 92.2225 64.5526 92.7386C64.8366 93.2547 64.9787 93.946 64.9787 94.8125V102H63.3026V100.523H63.2173C63.1037 100.759 62.9143 101.013 62.6491 101.283C62.384 101.553 62.0313 101.782 61.5909 101.972C61.1506 102.161 60.6132 102.256 59.9787 102.256ZM60.2344 100.75C60.8973 100.75 61.456 100.62 61.9105 100.359C62.3698 100.099 62.7154 99.7628 62.9474 99.3509C63.1842 98.9389 63.3026 98.5057 63.3026 98.0511V96.517C63.2315 96.6023 63.0753 96.6804 62.8338 96.7514C62.5971 96.8177 62.3224 96.8769 62.0099 96.929C61.7022 96.9763 61.4015 97.0189 61.108 97.0568C60.8191 97.09 60.5848 97.1184 60.4048 97.142C59.9692 97.1989 59.562 97.2912 59.1832 97.419C58.8092 97.5421 58.5062 97.7292 58.2741 97.9801C58.0469 98.2263 57.9332 98.5625 57.9332 98.9886C57.9332 99.571 58.1487 100.011 58.5795 100.31C59.0152 100.603 59.5668 100.75 60.2344 100.75ZM69.7141 87.4545V102H68.038V87.4545H69.7141ZM75.9943 102.256C75.303 102.256 74.6757 102.125 74.1122 101.865C73.5488 101.6 73.1013 101.219 72.7699 100.722C72.4384 100.22 72.2727 99.6136 72.2727 98.9034C72.2727 98.2784 72.3958 97.7718 72.642 97.3835C72.8883 96.9905 73.2173 96.6828 73.6293 96.4602C74.0412 96.2377 74.4957 96.072 74.9929 95.9631C75.4948 95.8494 75.9991 95.7595 76.5057 95.6932C77.1686 95.608 77.706 95.544 78.1179 95.5014C78.5346 95.4541 78.8376 95.3759 79.027 95.267C79.2211 95.1581 79.3182 94.9687 79.3182 94.6989V94.642C79.3182 93.9413 79.1264 93.3968 78.7429 93.0085C78.3641 92.6203 77.7888 92.4261 77.017 92.4261C76.2169 92.4261 75.5895 92.6013 75.1349 92.9517C74.6804 93.3021 74.3608 93.6761 74.1761 94.0739L72.5852 93.5057C72.8693 92.8428 73.2481 92.3267 73.7216 91.9574C74.1998 91.5833 74.7206 91.3229 75.2841 91.1761C75.8523 91.0246 76.411 90.9489 76.9602 90.9489C77.3106 90.9489 77.7131 90.9915 78.1676 91.0767C78.6269 91.1572 79.0696 91.3253 79.4957 91.581C79.9266 91.8366 80.2841 92.2225 80.5682 92.7386C80.8523 93.2547 80.9943 93.946 80.9943 94.8125V102H79.3182V100.523H79.233C79.1193 100.759 78.9299 101.013 78.6648 101.283C78.3996 101.553 78.0469 101.782 77.6065 101.972C77.1662 102.161 76.6288 102.256 75.9943 102.256ZM76.25 100.75C76.9129 100.75 77.4716 100.62 77.9261 100.359C78.3854 100.099 78.7311 99.7628 78.9631 99.3509C79.1998 98.9389 79.3182 98.5057 79.3182 98.0511V96.517C79.2472 96.6023 79.0909 96.6804 78.8494 96.7514C78.6127 96.8177 78.3381 96.8769 78.0256 96.929C77.7178 96.9763 77.4171 97.0189 77.1236 97.0568C76.8348 97.09 76.6004 97.1184 76.4205 97.142C75.9848 97.1989 75.5777 97.2912 75.1989 97.419C74.8248 97.5421 74.5218 97.7292 74.2898 97.9801C74.0625 98.2263 73.9489 98.5625 73.9489 98.9886C73.9489 99.571 74.1643 100.011 74.5952 100.31C75.0308 100.603 75.5824 100.75 76.25 100.75ZM84.0536 102V91.0909H85.6729V92.7955H85.815C86.0423 92.2131 86.4092 91.7609 86.9158 91.4389C87.4225 91.1122 88.0309 90.9489 88.7411 90.9489C89.4608 90.9489 90.0598 91.1122 90.538 91.4389C91.021 91.7609 91.3974 92.2131 91.6673 92.7955H91.7809C92.0603 92.232 92.4793 91.7846 93.038 91.4531C93.5967 91.117 94.2667 90.9489 95.0479 90.9489C96.0233 90.9489 96.8211 91.2543 97.4414 91.8651C98.0617 92.4711 98.3718 93.4157 98.3718 94.6989V102H96.6957V94.6989C96.6957 93.8939 96.4755 93.3187 96.0352 92.973C95.5948 92.6274 95.0763 92.4545 94.4798 92.4545C93.7127 92.4545 93.1185 92.6866 92.6971 93.1506C92.2757 93.6098 92.065 94.1922 92.065 94.8977V102H90.3604V94.5284C90.3604 93.9081 90.1592 93.4086 89.7567 93.0298C89.3543 92.6463 88.8358 92.4545 88.2013 92.4545C87.7657 92.4545 87.3585 92.5705 86.9798 92.8026C86.6057 93.0346 86.3027 93.3565 86.0707 93.7685C85.8434 94.1757 85.7298 94.6468 85.7298 95.1818V102H84.0536ZM104.647 102.256C103.955 102.256 103.328 102.125 102.765 101.865C102.201 101.6 101.754 101.219 101.422 100.722C101.091 100.22 100.925 99.6136 100.925 98.9034C100.925 98.2784 101.048 97.7718 101.294 97.3835C101.541 96.9905 101.87 96.6828 102.282 96.4602C102.694 96.2377 103.148 96.072 103.645 95.9631C104.147 95.8494 104.651 95.7595 105.158 95.6932C105.821 95.608 106.358 95.544 106.77 95.5014C107.187 95.4541 107.49 95.3759 107.679 95.267C107.873 95.1581 107.971 94.9687 107.971 94.6989V94.642C107.971 93.9413 107.779 93.3968 107.395 93.0085C107.016 92.6203 106.441 92.4261 105.669 92.4261C104.869 92.4261 104.242 92.6013 103.787 92.9517C103.333 93.3021 103.013 93.6761 102.828 94.0739L101.238 93.5057C101.522 92.8428 101.9 92.3267 102.374 91.9574C102.852 91.5833 103.373 91.3229 103.936 91.1761C104.505 91.0246 105.063 90.9489 105.613 90.9489C105.963 90.9489 106.365 90.9915 106.82 91.0767C107.279 91.1572 107.722 91.3253 108.148 91.581C108.579 91.8366 108.936 92.2225 109.221 92.7386C109.505 93.2547 109.647 93.946 109.647 94.8125V102H107.971V100.523H107.885C107.772 100.759 107.582 101.013 107.317 101.283C107.052 101.553 106.699 101.782 106.259 101.972C105.819 102.161 105.281 102.256 104.647 102.256ZM104.902 100.75C105.565 100.75 106.124 100.62 106.578 100.359C107.038 100.099 107.383 99.7628 107.615 99.3509C107.852 98.9389 107.971 98.5057 107.971 98.0511V96.517C107.9 96.6023 107.743 96.6804 107.502 96.7514C107.265 96.8177 106.99 96.8769 106.678 96.929C106.37 96.9763 106.069 97.0189 105.776 97.0568C105.487 97.09 105.253 97.1184 105.073 97.142C104.637 97.1989 104.23 97.2912 103.851 97.419C103.477 97.5421 103.174 97.7292 102.942 97.9801C102.715 98.2263 102.601 98.5625 102.601 98.9886C102.601 99.571 102.817 100.011 103.248 100.31C103.683 100.603 104.235 100.75 104.902 100.75ZM114.382 95.4375V102H112.706V91.0909H114.325V92.7955H114.467C114.723 92.2415 115.111 91.7964 115.632 91.4602C116.153 91.1193 116.825 90.9489 117.649 90.9489C118.388 90.9489 119.034 91.1004 119.588 91.4034C120.142 91.7017 120.573 92.1562 120.881 92.767C121.188 93.3731 121.342 94.1402 121.342 95.0682V102H119.666V95.1818C119.666 94.3248 119.444 93.6572 118.999 93.179C118.554 92.696 117.943 92.4545 117.166 92.4545C116.631 92.4545 116.153 92.5705 115.732 92.8026C115.315 93.0346 114.986 93.3731 114.744 93.8182C114.503 94.2633 114.382 94.803 114.382 95.4375ZM27.2008 126V111.455H32.1156C33.2567 111.455 34.1895 111.661 34.9139 112.072C35.6431 112.48 36.1828 113.031 36.5332 113.727C36.8836 114.423 37.0588 115.2 37.0588 116.057C37.0588 116.914 36.8836 117.693 36.5332 118.393C36.1876 119.094 35.6525 119.653 34.9281 120.07C34.2037 120.482 33.2756 120.688 32.144 120.688H28.6213V119.125H32.0872C32.8684 119.125 33.4958 118.99 33.9693 118.72C34.4428 118.45 34.786 118.086 34.9991 117.626C35.2169 117.162 35.3258 116.639 35.3258 116.057C35.3258 115.474 35.2169 114.954 34.9991 114.494C34.786 114.035 34.4404 113.675 33.9622 113.415C33.484 113.15 32.8495 113.017 32.0588 113.017H28.9622V126H27.2008ZM47.3961 117.534L45.8904 117.96C45.7958 117.709 45.6561 117.465 45.4714 117.229C45.2915 116.987 45.0453 116.788 44.7328 116.632C44.4203 116.476 44.0202 116.398 43.5325 116.398C42.8649 116.398 42.3085 116.552 41.8635 116.859C41.4231 117.162 41.2029 117.548 41.2029 118.017C41.2029 118.434 41.3545 118.763 41.6575 119.004C41.9605 119.246 42.434 119.447 43.0779 119.608L44.6973 120.006C45.6726 120.242 46.3994 120.605 46.8777 121.092C47.3559 121.575 47.595 122.198 47.595 122.96C47.595 123.585 47.4151 124.144 47.0552 124.636C46.7001 125.129 46.2029 125.517 45.5637 125.801C44.9245 126.085 44.1812 126.227 43.3336 126.227C42.2209 126.227 41.3 125.986 40.5708 125.503C39.8417 125.02 39.38 124.314 39.1859 123.386L40.7768 122.989C40.9283 123.576 41.2148 124.016 41.6362 124.31C42.0623 124.603 42.6187 124.75 43.3052 124.75C44.0865 124.75 44.7067 124.584 45.166 124.253C45.63 123.917 45.862 123.514 45.862 123.045C45.862 122.667 45.7295 122.349 45.4643 122.094C45.1992 121.833 44.792 121.639 44.2427 121.511L42.4245 121.085C41.4255 120.848 40.6916 120.482 40.2228 119.984C39.7588 119.482 39.5268 118.855 39.5268 118.102C39.5268 117.487 39.6996 116.942 40.0453 116.469C40.3957 115.995 40.8715 115.624 41.4728 115.354C42.0789 115.084 42.7654 114.949 43.5325 114.949C44.612 114.949 45.4596 115.186 46.0751 115.659C46.6954 116.133 47.1357 116.758 47.3961 117.534ZM50.1181 126V115.091H51.7942V126H50.1181ZM50.9703 113.273C50.6436 113.273 50.3619 113.161 50.1252 112.939C49.8932 112.716 49.7772 112.449 49.7772 112.136C49.7772 111.824 49.8932 111.556 50.1252 111.334C50.3619 111.111 50.6436 111 50.9703 111C51.2971 111 51.5764 111.111 51.8084 111.334C52.0452 111.556 52.1635 111.824 52.1635 112.136C52.1635 112.449 52.0452 112.716 51.8084 112.939C51.5764 113.161 51.2971 113.273 50.9703 113.273ZM56.4267 122.023L56.3983 119.949H56.7392L61.5119 115.091H63.5858L58.5005 120.233H58.3585L56.4267 122.023ZM54.8642 126V111.455H56.5403V126H54.8642ZM61.796 126L57.5346 120.602L58.7278 119.438L63.9267 126H61.796ZM69.7257 126.227C68.7408 126.227 67.8767 125.993 67.1333 125.524C66.3947 125.055 65.8171 124.4 65.4004 123.557C64.9885 122.714 64.7825 121.729 64.7825 120.602C64.7825 119.466 64.9885 118.474 65.4004 117.626C65.8171 116.779 66.3947 116.121 67.1333 115.652C67.8767 115.183 68.7408 114.949 69.7257 114.949C70.7105 114.949 71.5723 115.183 72.3109 115.652C73.0543 116.121 73.6319 116.779 74.0439 117.626C74.4605 118.474 74.6689 119.466 74.6689 120.602C74.6689 121.729 74.4605 122.714 74.0439 123.557C73.6319 124.4 73.0543 125.055 72.3109 125.524C71.5723 125.993 70.7105 126.227 69.7257 126.227ZM69.7257 124.722C70.4738 124.722 71.0893 124.53 71.5723 124.146C72.0552 123.763 72.4127 123.259 72.6447 122.634C72.8767 122.009 72.9927 121.331 72.9927 120.602C72.9927 119.873 72.8767 119.194 72.6447 118.564C72.4127 117.934 72.0552 117.425 71.5723 117.037C71.0893 116.649 70.4738 116.455 69.7257 116.455C68.9776 116.455 68.362 116.649 67.8791 117.037C67.3961 117.425 67.0386 117.934 66.8066 118.564C66.5746 119.194 66.4586 119.873 66.4586 120.602C66.4586 121.331 66.5746 122.009 66.8066 122.634C67.0386 123.259 67.3961 123.763 67.8791 124.146C68.362 124.53 68.9776 124.722 69.7257 124.722ZM78.9036 111.455V126H77.2275V111.455H78.9036ZM86.4054 126.227C85.4205 126.227 84.5564 125.993 83.813 125.524C83.0744 125.055 82.4967 124.4 82.0801 123.557C81.6681 122.714 81.4622 121.729 81.4622 120.602C81.4622 119.466 81.6681 118.474 82.0801 117.626C82.4967 116.779 83.0744 116.121 83.813 115.652C84.5564 115.183 85.4205 114.949 86.4054 114.949C87.3902 114.949 88.252 115.183 88.9906 115.652C89.734 116.121 90.3116 116.779 90.7235 117.626C91.1402 118.474 91.3485 119.466 91.3485 120.602C91.3485 121.729 91.1402 122.714 90.7235 123.557C90.3116 124.4 89.734 125.055 88.9906 125.524C88.252 125.993 87.3902 126.227 86.4054 126.227ZM86.4054 124.722C87.1535 124.722 87.769 124.53 88.252 124.146C88.7349 123.763 89.0924 123.259 89.3244 122.634C89.5564 122.009 89.6724 121.331 89.6724 120.602C89.6724 119.873 89.5564 119.194 89.3244 118.564C89.0924 117.934 88.7349 117.425 88.252 117.037C87.769 116.649 87.1535 116.455 86.4054 116.455C85.6573 116.455 85.0417 116.649 84.5588 117.037C84.0758 117.425 83.7183 117.934 83.4863 118.564C83.2543 119.194 83.1383 119.873 83.1383 120.602C83.1383 121.331 83.2543 122.009 83.4863 122.634C83.7183 123.259 84.0758 123.763 84.5588 124.146C85.0417 124.53 85.6573 124.722 86.4054 124.722ZM98.3105 130.318C97.5009 130.318 96.8049 130.214 96.2225 130.006C95.6401 129.802 95.1548 129.532 94.7665 129.196C94.383 128.865 94.0776 128.509 93.8503 128.131L95.1855 127.193C95.3371 127.392 95.5288 127.619 95.7608 127.875C95.9928 128.135 96.3101 128.36 96.7125 128.55C97.1197 128.744 97.6524 128.841 98.3105 128.841C99.1912 128.841 99.918 128.628 100.491 128.202C101.064 127.776 101.35 127.108 101.35 126.199V123.983H101.208C101.085 124.182 100.91 124.428 100.683 124.722C100.46 125.01 100.138 125.268 99.7168 125.496C99.3001 125.718 98.7367 125.83 98.0265 125.83C97.1458 125.83 96.3551 125.621 95.6543 125.205C94.9583 124.788 94.4067 124.182 93.9995 123.386C93.597 122.591 93.3958 121.625 93.3958 120.489C93.3958 119.371 93.5923 118.398 93.9853 117.57C94.3783 116.736 94.9251 116.092 95.6259 115.638C96.3266 115.179 97.1363 114.949 98.0549 114.949C98.7651 114.949 99.3285 115.067 99.7452 115.304C100.167 115.536 100.489 115.801 100.711 116.099C100.938 116.393 101.114 116.634 101.237 116.824H101.407V115.091H103.026V126.312C103.026 127.25 102.813 128.012 102.387 128.599C101.966 129.191 101.398 129.625 100.683 129.899C99.9725 130.179 99.1818 130.318 98.3105 130.318ZM98.2537 124.324C98.9261 124.324 99.4943 124.17 99.9583 123.862C100.422 123.554 100.775 123.112 101.017 122.534C101.258 121.956 101.379 121.265 101.379 120.46C101.379 119.674 101.26 118.981 101.024 118.379C100.787 117.778 100.436 117.307 99.9725 116.966C99.5085 116.625 98.9355 116.455 98.2537 116.455C97.5435 116.455 96.9516 116.634 96.4782 116.994C96.0094 117.354 95.6567 117.837 95.4199 118.443C95.1879 119.049 95.0719 119.722 95.0719 120.46C95.0719 121.218 95.1903 121.888 95.427 122.47C95.6685 123.048 96.0236 123.502 96.4924 123.834C96.9659 124.161 97.553 124.324 98.2537 124.324Z" fill="black"/>
<path d="M483.386 71V56.4545H488.301C489.442 56.4545 490.375 56.6605 491.099 57.0724C491.829 57.4796 492.368 58.0312 492.719 58.7273C493.069 59.4233 493.244 60.1998 493.244 61.0568C493.244 61.9138 493.069 62.6927 492.719 63.3935C492.373 64.0942 491.838 64.6529 491.114 65.0696C490.389 65.4815 489.461 65.6875 488.33 65.6875H484.807V64.125H488.273C489.054 64.125 489.681 63.9901 490.155 63.7202C490.628 63.4503 490.972 63.0857 491.185 62.6264C491.402 62.1624 491.511 61.6392 491.511 61.0568C491.511 60.4744 491.402 59.9536 491.185 59.4943C490.972 59.035 490.626 58.6752 490.148 58.4148C489.67 58.1496 489.035 58.017 488.244 58.017H485.148V71H483.386ZM495.854 71V60.0909H497.531V71H495.854ZM496.707 58.2727C496.38 58.2727 496.098 58.1615 495.862 57.9389C495.629 57.7164 495.513 57.4489 495.513 57.1364C495.513 56.8239 495.629 56.5563 495.862 56.3338C496.098 56.1113 496.38 56 496.707 56C497.033 56 497.313 56.1113 497.545 56.3338C497.781 56.5563 497.9 56.8239 497.9 57.1364C497.9 57.4489 497.781 57.7164 497.545 57.9389C497.313 58.1615 497.033 58.2727 496.707 58.2727ZM502.277 56.4545V71H500.6V56.4545H502.277ZM505.347 71V60.0909H507.023V71H505.347ZM506.199 58.2727C505.872 58.2727 505.59 58.1615 505.354 57.9389C505.122 57.7164 505.006 57.4489 505.006 57.1364C505.006 56.8239 505.122 56.5563 505.354 56.3338C505.59 56.1113 505.872 56 506.199 56C506.526 56 506.805 56.1113 507.037 56.3338C507.274 56.5563 507.392 56.8239 507.392 57.1364C507.392 57.4489 507.274 57.7164 507.037 57.9389C506.805 58.1615 506.526 58.2727 506.199 58.2727ZM511.769 64.4375V71H510.093V56.4545H511.769V61.7955H511.911C512.167 61.232 512.55 60.7846 513.061 60.4531C513.578 60.117 514.264 59.9489 515.121 59.9489C515.864 59.9489 516.516 60.098 517.074 60.3963C517.633 60.6899 518.066 61.142 518.374 61.7528C518.686 62.3589 518.843 63.1307 518.843 64.0682V71H517.167V64.1818C517.167 63.3153 516.942 62.6454 516.492 62.1719C516.047 61.6937 515.429 61.4545 514.638 61.4545C514.089 61.4545 513.596 61.5705 513.161 61.8026C512.73 62.0346 512.389 62.3731 512.138 62.8182C511.892 63.2633 511.769 63.803 511.769 64.4375ZM463.201 95V80.4545H468.116C469.257 80.4545 470.189 80.6605 470.914 81.0724C471.643 81.4796 472.183 82.0312 472.533 82.7273C472.884 83.4233 473.059 84.1998 473.059 85.0568C473.059 85.9138 472.884 86.6927 472.533 87.3935C472.188 88.0942 471.653 88.6529 470.928 89.0696C470.204 89.4815 469.276 89.6875 468.144 89.6875H464.621V88.125H468.087C468.868 88.125 469.496 87.9901 469.969 87.7202C470.443 87.4503 470.786 87.0857 470.999 86.6264C471.217 86.1624 471.326 85.6392 471.326 85.0568C471.326 84.4744 471.217 83.9536 470.999 83.4943C470.786 83.035 470.44 82.6752 469.962 82.4148C469.484 82.1496 468.849 82.017 468.059 82.017H464.962V95H463.201ZM483.396 86.5341L481.89 86.9602C481.796 86.7093 481.656 86.4654 481.471 86.2287C481.291 85.9872 481.045 85.7884 480.733 85.6321C480.42 85.4759 480.02 85.3977 479.532 85.3977C478.865 85.3977 478.309 85.5516 477.863 85.8594C477.423 86.1624 477.203 86.5483 477.203 87.017C477.203 87.4337 477.354 87.7628 477.657 88.0043C477.961 88.2457 478.434 88.447 479.078 88.608L480.697 89.0057C481.673 89.2424 482.399 89.6046 482.878 90.0923C483.356 90.5753 483.595 91.1979 483.595 91.9602C483.595 92.5852 483.415 93.1439 483.055 93.6364C482.7 94.1288 482.203 94.517 481.564 94.8011C480.925 95.0852 480.181 95.2273 479.334 95.2273C478.221 95.2273 477.3 94.9858 476.571 94.5028C475.842 94.0199 475.38 93.3144 475.186 92.3864L476.777 91.9886C476.928 92.5758 477.215 93.0161 477.636 93.3097C478.062 93.6032 478.619 93.75 479.305 93.75C480.086 93.75 480.707 93.5843 481.166 93.2528C481.63 92.9167 481.862 92.5142 481.862 92.0455C481.862 91.6667 481.729 91.3494 481.464 91.0938C481.199 90.8333 480.792 90.6392 480.243 90.5114L478.425 90.0852C477.425 89.8485 476.692 89.4815 476.223 88.9844C475.759 88.4825 475.527 87.8551 475.527 87.1023C475.527 86.4867 475.7 85.9422 476.045 85.4688C476.396 84.9953 476.872 84.6236 477.473 84.3537C478.079 84.0838 478.765 83.9489 479.532 83.9489C480.612 83.9489 481.46 84.1856 482.075 84.6591C482.695 85.1326 483.136 85.7576 483.396 86.5341ZM486.118 95V84.0909H487.794V95H486.118ZM486.97 82.2727C486.644 82.2727 486.362 82.1615 486.125 81.9389C485.893 81.7164 485.777 81.4489 485.777 81.1364C485.777 80.8239 485.893 80.5563 486.125 80.3338C486.362 80.1113 486.644 80 486.97 80C487.297 80 487.576 80.1113 487.808 80.3338C488.045 80.5563 488.164 80.8239 488.164 81.1364C488.164 81.4489 488.045 81.7164 487.808 81.9389C487.576 82.1615 487.297 82.2727 486.97 82.2727ZM492.427 91.0227L492.398 88.9489H492.739L497.512 84.0909H499.586L494.501 89.233H494.358L492.427 91.0227ZM490.864 95V80.4545H492.54V95H490.864ZM497.796 95L493.535 89.6023L494.728 88.4375L499.927 95H497.796ZM505.726 95.2273C504.741 95.2273 503.877 94.9929 503.133 94.5241C502.395 94.0554 501.817 93.3996 501.4 92.5568C500.988 91.714 500.782 90.7292 500.782 89.6023C500.782 88.4659 500.988 87.474 501.4 86.6264C501.817 85.7789 502.395 85.1207 503.133 84.652C503.877 84.1832 504.741 83.9489 505.726 83.9489C506.711 83.9489 507.572 84.1832 508.311 84.652C509.054 85.1207 509.632 85.7789 510.044 86.6264C510.461 87.474 510.669 88.4659 510.669 89.6023C510.669 90.7292 510.461 91.714 510.044 92.5568C509.632 93.3996 509.054 94.0554 508.311 94.5241C507.572 94.9929 506.711 95.2273 505.726 95.2273ZM505.726 93.7216C506.474 93.7216 507.089 93.5298 507.572 93.1463C508.055 92.7628 508.413 92.2585 508.645 91.6335C508.877 91.0085 508.993 90.3314 508.993 89.6023C508.993 88.8731 508.877 88.1937 508.645 87.5639C508.413 86.9342 508.055 86.4252 507.572 86.0369C507.089 85.6487 506.474 85.4545 505.726 85.4545C504.978 85.4545 504.362 85.6487 503.879 86.0369C503.396 86.4252 503.039 86.9342 502.807 87.5639C502.575 88.1937 502.459 88.8731 502.459 89.6023C502.459 90.3314 502.575 91.0085 502.807 91.6335C503.039 92.2585 503.396 92.7628 503.879 93.1463C504.362 93.5298 504.978 93.7216 505.726 93.7216ZM514.904 80.4545V95H513.227V80.4545H514.904ZM522.405 95.2273C521.421 95.2273 520.556 94.9929 519.813 94.5241C519.074 94.0554 518.497 93.3996 518.08 92.5568C517.668 91.714 517.462 90.7292 517.462 89.6023C517.462 88.4659 517.668 87.474 518.08 86.6264C518.497 85.7789 519.074 85.1207 519.813 84.652C520.556 84.1832 521.421 83.9489 522.405 83.9489C523.39 83.9489 524.252 84.1832 524.991 84.652C525.734 85.1207 526.312 85.7789 526.724 86.6264C527.14 87.474 527.349 88.4659 527.349 89.6023C527.349 90.7292 527.14 91.714 526.724 92.5568C526.312 93.3996 525.734 94.0554 524.991 94.5241C524.252 94.9929 523.39 95.2273 522.405 95.2273ZM522.405 93.7216C523.153 93.7216 523.769 93.5298 524.252 93.1463C524.735 92.7628 525.092 92.2585 525.324 91.6335C525.556 91.0085 525.672 90.3314 525.672 89.6023C525.672 88.8731 525.556 88.1937 525.324 87.5639C525.092 86.9342 524.735 86.4252 524.252 86.0369C523.769 85.6487 523.153 85.4545 522.405 85.4545C521.657 85.4545 521.042 85.6487 520.559 86.0369C520.076 86.4252 519.718 86.9342 519.486 87.5639C519.254 88.1937 519.138 88.8731 519.138 89.6023C519.138 90.3314 519.254 91.0085 519.486 91.6335C519.718 92.2585 520.076 92.7628 520.559 93.1463C521.042 93.5298 521.657 93.7216 522.405 93.7216ZM534.311 99.3182C533.501 99.3182 532.805 99.214 532.222 99.0057C531.64 98.8021 531.155 98.5322 530.767 98.196C530.383 97.8646 530.078 97.5095 529.85 97.1307L531.186 96.1932C531.337 96.392 531.529 96.6193 531.761 96.875C531.993 97.1354 532.31 97.3603 532.713 97.5497C533.12 97.7438 533.652 97.8409 534.311 97.8409C535.191 97.8409 535.918 97.6278 536.491 97.2017C537.064 96.7756 537.35 96.108 537.35 95.1989V92.983H537.208C537.085 93.1818 536.91 93.428 536.683 93.7216C536.46 94.0104 536.138 94.2685 535.717 94.4957C535.3 94.7183 534.737 94.8295 534.026 94.8295C533.146 94.8295 532.355 94.6212 531.654 94.2045C530.958 93.7879 530.407 93.1818 529.999 92.3864C529.597 91.5909 529.396 90.625 529.396 89.4886C529.396 88.3712 529.592 87.3982 529.985 86.5696C530.378 85.7363 530.925 85.0923 531.626 84.6378C532.327 84.1785 533.136 83.9489 534.055 83.9489C534.765 83.9489 535.329 84.0672 535.745 84.304C536.167 84.536 536.489 84.8011 536.711 85.0994C536.938 85.393 537.114 85.6345 537.237 85.8239H537.407V84.0909H539.026V95.3125C539.026 96.25 538.813 97.0123 538.387 97.5994C537.966 98.1913 537.398 98.6245 536.683 98.8991C535.972 99.1785 535.182 99.3182 534.311 99.3182ZM534.254 93.3239C534.926 93.3239 535.494 93.17 535.958 92.8622C536.422 92.5545 536.775 92.1117 537.017 91.5341C537.258 90.9564 537.379 90.2652 537.379 89.4602C537.379 88.6742 537.26 87.9806 537.024 87.3793C536.787 86.7779 536.436 86.3068 535.972 85.9659C535.508 85.625 534.936 85.4545 534.254 85.4545C533.544 85.4545 532.952 85.6345 532.478 85.9943C532.009 86.3542 531.657 86.8371 531.42 87.4432C531.188 88.0492 531.072 88.7216 531.072 89.4602C531.072 90.2178 531.19 90.8878 531.427 91.4702C531.669 92.0478 532.024 92.5024 532.492 92.8338C532.966 93.1605 533.553 93.3239 534.254 93.3239Z" fill="black"/>
<path d="M686.693 71H682.205V56.4545H686.892C688.303 56.4545 689.511 56.7457 690.514 57.3281C691.518 57.9058 692.288 58.7367 692.823 59.821C693.358 60.9006 693.625 62.1932 693.625 63.6989C693.625 65.214 693.355 66.5185 692.816 67.6122C692.276 68.7012 691.49 69.5393 690.458 70.1264C689.425 70.7088 688.171 71 686.693 71ZM683.966 69.4375H686.58C687.782 69.4375 688.779 69.2055 689.57 68.7415C690.36 68.2775 690.95 67.617 691.338 66.7599C691.727 65.9029 691.921 64.8826 691.921 63.6989C691.921 62.5246 691.729 61.5137 691.345 60.6662C690.962 59.8139 690.389 59.1605 689.627 58.706C688.864 58.2467 687.915 58.017 686.779 58.017H683.966V69.4375ZM699.563 71.2557C698.871 71.2557 698.244 71.1255 697.681 70.8651C697.117 70.5999 696.67 70.2188 696.338 69.7216C696.007 69.2197 695.841 68.6136 695.841 67.9034C695.841 67.2784 695.964 66.7718 696.21 66.3835C696.457 65.9905 696.786 65.6828 697.198 65.4602C697.61 65.2377 698.064 65.072 698.561 64.9631C699.063 64.8494 699.567 64.7595 700.074 64.6932C700.737 64.608 701.274 64.544 701.686 64.5014C702.103 64.4541 702.406 64.3759 702.595 64.267C702.789 64.1581 702.887 63.9687 702.887 63.6989V63.642C702.887 62.9413 702.695 62.3968 702.311 62.0085C701.932 61.6203 701.357 61.4261 700.585 61.4261C699.785 61.4261 699.158 61.6013 698.703 61.9517C698.249 62.3021 697.929 62.6761 697.744 63.0739L696.154 62.5057C696.438 61.8428 696.816 61.3267 697.29 60.9574C697.768 60.5833 698.289 60.3229 698.852 60.1761C699.421 60.0246 699.979 59.9489 700.529 59.9489C700.879 59.9489 701.281 59.9915 701.736 60.0767C702.195 60.1572 702.638 60.3253 703.064 60.581C703.495 60.8366 703.852 61.2225 704.137 61.7386C704.421 62.2547 704.563 62.946 704.563 63.8125V71H702.887V69.5227H702.801C702.688 69.7595 702.498 70.0128 702.233 70.2827C701.968 70.5526 701.615 70.7822 701.175 70.9716C700.735 71.161 700.197 71.2557 699.563 71.2557ZM699.818 69.75C700.481 69.75 701.04 69.6198 701.494 69.3594C701.954 69.099 702.299 68.7628 702.531 68.3509C702.768 67.9389 702.887 67.5057 702.887 67.0511V65.517C702.816 65.6023 702.659 65.6804 702.418 65.7514C702.181 65.8177 701.906 65.8769 701.594 65.929C701.286 65.9763 700.985 66.0189 700.692 66.0568C700.403 66.09 700.169 66.1184 699.989 66.142C699.553 66.1989 699.146 66.2912 698.767 66.419C698.393 66.5421 698.09 66.7292 697.858 66.9801C697.631 67.2263 697.517 67.5625 697.517 67.9886C697.517 68.571 697.733 69.0114 698.164 69.3097C698.599 69.6032 699.151 69.75 699.818 69.75ZM712.366 60.0909V61.5114H706.713V60.0909H712.366ZM708.361 57.4773H710.037V67.875C710.037 68.3485 710.105 68.7036 710.243 68.9403C710.385 69.1723 710.565 69.3286 710.782 69.4091C711.005 69.4848 711.239 69.5227 711.486 69.5227C711.67 69.5227 711.822 69.5133 711.94 69.4943C712.059 69.4706 712.153 69.4517 712.224 69.4375L712.565 70.9432C712.452 70.9858 712.293 71.0284 712.089 71.071C711.886 71.1184 711.628 71.142 711.315 71.142C710.842 71.142 710.378 71.0402 709.923 70.8366C709.473 70.633 709.099 70.3229 708.801 69.9062C708.507 69.4896 708.361 68.964 708.361 68.3295V57.4773ZM718.098 71.2557C717.407 71.2557 716.779 71.1255 716.216 70.8651C715.652 70.5999 715.205 70.2188 714.873 69.7216C714.542 69.2197 714.376 68.6136 714.376 67.9034C714.376 67.2784 714.499 66.7718 714.746 66.3835C714.992 65.9905 715.321 65.6828 715.733 65.4602C716.145 65.2377 716.599 65.072 717.096 64.9631C717.598 64.8494 718.103 64.7595 718.609 64.6932C719.272 64.608 719.809 64.544 720.221 64.5014C720.638 64.4541 720.941 64.3759 721.131 64.267C721.325 64.1581 721.422 63.9687 721.422 63.6989V63.642C721.422 62.9413 721.23 62.3968 720.846 62.0085C720.468 61.6203 719.892 61.4261 719.121 61.4261C718.32 61.4261 717.693 61.6013 717.238 61.9517C716.784 62.3021 716.464 62.6761 716.28 63.0739L714.689 62.5057C714.973 61.8428 715.352 61.3267 715.825 60.9574C716.303 60.5833 716.824 60.3229 717.388 60.1761C717.956 60.0246 718.515 59.9489 719.064 59.9489C719.414 59.9489 719.817 59.9915 720.271 60.0767C720.73 60.1572 721.173 60.3253 721.599 60.581C722.03 60.8366 722.388 61.2225 722.672 61.7386C722.956 62.2547 723.098 62.946 723.098 63.8125V71H721.422V69.5227H721.336C721.223 69.7595 721.033 70.0128 720.768 70.2827C720.503 70.5526 720.15 70.7822 719.71 70.9716C719.27 71.161 718.732 71.2557 718.098 71.2557ZM718.354 69.75C719.016 69.75 719.575 69.6198 720.03 69.3594C720.489 69.099 720.835 68.7628 721.067 68.3509C721.303 67.9389 721.422 67.5057 721.422 67.0511V65.517C721.351 65.6023 721.194 65.6804 720.953 65.7514C720.716 65.8177 720.442 65.8769 720.129 65.929C719.821 65.9763 719.521 66.0189 719.227 66.0568C718.938 66.09 718.704 66.1184 718.524 66.142C718.088 66.1989 717.681 66.2912 717.302 66.419C716.928 66.5421 716.625 66.7292 716.393 66.9801C716.166 67.2263 716.052 67.5625 716.052 67.9886C716.052 68.571 716.268 69.0114 716.699 69.3097C717.134 69.6032 717.686 69.75 718.354 69.75ZM736.498 71H732.009V56.4545H736.697C738.108 56.4545 739.315 56.7457 740.319 57.3281C741.323 57.9058 742.092 58.7367 742.627 59.821C743.162 60.9006 743.43 62.1932 743.43 63.6989C743.43 65.214 743.16 66.5185 742.62 67.6122C742.08 68.7012 741.294 69.5393 740.262 70.1264C739.23 70.7088 737.975 71 736.498 71ZM733.771 69.4375H736.384C737.587 69.4375 738.584 69.2055 739.374 68.7415C740.165 68.2775 740.755 67.617 741.143 66.7599C741.531 65.9029 741.725 64.8826 741.725 63.6989C741.725 62.5246 741.534 61.5137 741.15 60.6662C740.767 59.8139 740.194 59.1605 739.431 58.706C738.669 58.2467 737.72 58.017 736.583 58.017H733.771V69.4375ZM746.157 71V60.0909H747.833V71H746.157ZM747.009 58.2727C746.683 58.2727 746.401 58.1615 746.164 57.9389C745.932 57.7164 745.816 57.4489 745.816 57.1364C745.816 56.8239 745.932 56.5563 746.164 56.3338C746.401 56.1113 746.683 56 747.009 56C747.336 56 747.615 56.1113 747.847 56.3338C748.084 56.5563 748.203 56.8239 748.203 57.1364C748.203 57.4489 748.084 57.7164 747.847 57.9389C747.615 58.1615 747.336 58.2727 747.009 58.2727ZM750.903 71V60.0909H752.523V61.7386H752.636C752.835 61.1989 753.195 60.7609 753.716 60.4247C754.237 60.0885 754.824 59.9205 755.477 59.9205C755.6 59.9205 755.754 59.9228 755.939 59.9276C756.123 59.9323 756.263 59.9394 756.358 59.9489V61.6534C756.301 61.6392 756.171 61.6179 755.967 61.5895C755.768 61.5563 755.558 61.5398 755.335 61.5398C754.805 61.5398 754.331 61.651 753.915 61.8736C753.503 62.0914 753.176 62.3944 752.934 62.7827C752.698 63.1662 752.579 63.6042 752.579 64.0966V71H750.903ZM758.345 71V60.0909H760.021V71H758.345ZM759.197 58.2727C758.87 58.2727 758.588 58.1615 758.352 57.9389C758.12 57.7164 758.004 57.4489 758.004 57.1364C758.004 56.8239 758.12 56.5563 758.352 56.3338C758.588 56.1113 758.87 56 759.197 56C759.524 56 759.803 56.1113 760.035 56.3338C760.272 56.5563 760.39 56.8239 760.39 57.1364C760.39 57.4489 760.272 57.7164 760.035 57.9389C759.803 58.1615 759.524 58.2727 759.197 58.2727Z" fill="black"/>
<path d="M857.07 64V49.4545H861.985C863.126 49.4545 864.059 49.6605 864.783 50.0724C865.512 50.4796 866.052 51.0312 866.402 51.7273C866.753 52.4233 866.928 53.1998 866.928 54.0568C866.928 54.9138 866.753 55.6927 866.402 56.3935C866.057 57.0942 865.522 57.6529 864.797 58.0696C864.073 58.4815 863.145 58.6875 862.013 58.6875H858.49V57.125H861.956C862.738 57.125 863.365 56.9901 863.838 56.7202C864.312 56.4503 864.655 56.0857 864.868 55.6264C865.086 55.1624 865.195 54.6392 865.195 54.0568C865.195 53.4744 865.086 52.9536 864.868 52.4943C864.655 52.035 864.31 51.6752 863.831 51.4148C863.353 51.1496 862.719 51.017 861.928 51.017H858.831V64H857.07ZM873.995 64.2273C872.944 64.2273 872.037 63.9953 871.275 63.5312C870.517 63.0625 869.932 62.4091 869.52 61.571C869.113 60.7282 868.909 59.7481 868.909 58.6307C868.909 57.5133 869.113 56.5284 869.52 55.6761C869.932 54.8191 870.505 54.1515 871.239 53.6733C871.978 53.1903 872.839 52.9489 873.824 52.9489C874.392 52.9489 874.953 53.0436 875.507 53.233C876.061 53.4223 876.566 53.7301 877.02 54.1562C877.475 54.5777 877.837 55.1364 878.107 55.8324C878.377 56.5284 878.512 57.3854 878.512 58.4034V59.1136H870.103V57.6648H876.807C876.807 57.0492 876.684 56.5 876.438 56.017C876.196 55.5341 875.851 55.1529 875.401 54.8736C874.956 54.5942 874.43 54.4545 873.824 54.4545C873.157 54.4545 872.579 54.6203 872.091 54.9517C871.608 55.2784 871.237 55.7045 870.976 56.2301C870.716 56.7557 870.586 57.3191 870.586 57.9205V58.8864C870.586 59.7102 870.728 60.4086 871.012 60.9815C871.301 61.5497 871.701 61.983 872.212 62.2812C872.723 62.5748 873.318 62.7216 873.995 62.7216C874.435 62.7216 874.833 62.66 875.188 62.5369C875.548 62.4091 875.858 62.2197 876.118 61.9688C876.379 61.7131 876.58 61.3958 876.722 61.017L878.341 61.4716C878.171 62.0208 877.884 62.5038 877.482 62.9205C877.079 63.3324 876.582 63.6544 875.99 63.8864C875.399 64.1136 874.733 64.2273 873.995 64.2273ZM881.061 64V53.0909H882.681V54.7955H882.823C883.05 54.2131 883.417 53.7609 883.924 53.4389C884.43 53.1122 885.039 52.9489 885.749 52.9489C886.469 52.9489 887.068 53.1122 887.546 53.4389C888.029 53.7609 888.405 54.2131 888.675 54.7955H888.789C889.068 54.232 889.487 53.7846 890.046 53.4531C890.605 53.117 891.275 52.9489 892.056 52.9489C893.031 52.9489 893.829 53.2543 894.449 53.8651C895.069 54.4711 895.38 55.4157 895.38 56.6989V64H893.703V56.6989C893.703 55.8939 893.483 55.3187 893.043 54.973C892.603 54.6274 892.084 54.4545 891.488 54.4545C890.721 54.4545 890.126 54.6866 889.705 55.1506C889.283 55.6098 889.073 56.1922 889.073 56.8977V64H887.368V56.5284C887.368 55.9081 887.167 55.4086 886.765 55.0298C886.362 54.6463 885.844 54.4545 885.209 54.4545C884.774 54.4545 884.366 54.5705 883.988 54.8026C883.614 55.0346 883.31 55.3565 883.078 55.7685C882.851 56.1757 882.738 56.6468 882.738 57.1818V64H881.061ZM898.672 64V49.4545H900.348V54.8239H900.49C900.613 54.6345 900.783 54.393 901.001 54.0994C901.224 53.8011 901.541 53.536 901.953 53.304C902.369 53.0672 902.933 52.9489 903.643 52.9489C904.562 52.9489 905.371 53.1785 906.072 53.6378C906.773 54.0971 907.32 54.7481 907.713 55.5909C908.106 56.4337 908.302 57.428 908.302 58.5739C908.302 59.7292 908.106 60.7306 907.713 61.5781C907.32 62.4209 906.775 63.0743 906.079 63.5384C905.383 63.9976 904.581 64.2273 903.672 64.2273C902.971 64.2273 902.41 64.1113 901.988 63.8793C901.567 63.6425 901.243 63.375 901.015 63.0767C900.788 62.7737 900.613 62.5227 900.49 62.3239H900.291V64H898.672ZM900.319 58.5455C900.319 59.3693 900.44 60.0961 900.681 60.7259C900.923 61.3509 901.276 61.8409 901.74 62.196C902.204 62.5464 902.772 62.7216 903.444 62.7216C904.145 62.7216 904.73 62.5369 905.199 62.1676C905.672 61.7936 906.027 61.2917 906.264 60.6619C906.505 60.0275 906.626 59.322 906.626 58.5455C906.626 57.7784 906.508 57.0871 906.271 56.4716C906.039 55.8513 905.686 55.3613 905.213 55.0014C904.744 54.6368 904.154 54.4545 903.444 54.4545C902.762 54.4545 902.19 54.6274 901.725 54.973C901.261 55.3139 900.911 55.7921 900.674 56.4077C900.438 57.0185 900.319 57.7311 900.319 58.5455ZM914.076 64.2557C913.385 64.2557 912.758 64.1255 912.194 63.8651C911.631 63.5999 911.183 63.2188 910.852 62.7216C910.52 62.2197 910.355 61.6136 910.355 60.9034C910.355 60.2784 910.478 59.7718 910.724 59.3835C910.97 58.9905 911.299 58.6828 911.711 58.4602C912.123 58.2377 912.578 58.072 913.075 57.9631C913.577 57.8494 914.081 57.7595 914.588 57.6932C915.251 57.608 915.788 57.544 916.2 57.5014C916.617 57.4541 916.92 57.3759 917.109 57.267C917.303 57.1581 917.4 56.9687 917.4 56.6989V56.642C917.4 55.9413 917.208 55.3968 916.825 55.0085C916.446 54.6203 915.871 54.4261 915.099 54.4261C914.299 54.4261 913.672 54.6013 913.217 54.9517C912.762 55.3021 912.443 55.6761 912.258 56.0739L910.667 55.5057C910.951 54.8428 911.33 54.3267 911.804 53.9574C912.282 53.5833 912.803 53.3229 913.366 53.1761C913.934 53.0246 914.493 52.9489 915.042 52.9489C915.393 52.9489 915.795 52.9915 916.25 53.0767C916.709 53.1572 917.152 53.3253 917.578 53.581C918.009 53.8366 918.366 54.2225 918.65 54.7386C918.934 55.2547 919.076 55.946 919.076 56.8125V64H917.4V62.5227H917.315C917.201 62.7595 917.012 63.0128 916.747 63.2827C916.482 63.5526 916.129 63.7822 915.689 63.9716C915.248 64.161 914.711 64.2557 914.076 64.2557ZM914.332 62.75C914.995 62.75 915.554 62.6198 916.008 62.3594C916.467 62.099 916.813 61.7628 917.045 61.3509C917.282 60.9389 917.4 60.5057 917.4 60.0511V58.517C917.329 58.6023 917.173 58.6804 916.931 58.7514C916.695 58.8177 916.42 58.8769 916.108 58.929C915.8 58.9763 915.499 59.0189 915.206 59.0568C914.917 59.09 914.682 59.1184 914.502 59.142C914.067 59.1989 913.66 59.2912 913.281 59.419C912.907 59.5421 912.604 59.7292 912.372 59.9801C912.145 60.2263 912.031 60.5625 912.031 60.9886C912.031 61.571 912.246 62.0114 912.677 62.3097C913.113 62.6032 913.664 62.75 914.332 62.75ZM922.825 68.0909C922.54 68.0909 922.287 68.0672 922.065 68.0199C921.842 67.9773 921.688 67.9347 921.603 67.892L922.029 66.4148C922.436 66.5189 922.796 66.5568 923.109 66.5284C923.421 66.5 923.698 66.3603 923.94 66.1094C924.186 65.8632 924.411 65.4631 924.614 64.9091L924.927 64.0568L920.893 53.0909H922.711L925.722 61.7841H925.836L928.847 53.0909H930.665L926.035 65.5909C925.826 66.1544 925.568 66.6207 925.261 66.9901C924.953 67.3641 924.595 67.6411 924.188 67.821C923.786 68.0009 923.331 68.0909 922.825 68.0909ZM935.756 64.2557C935.065 64.2557 934.437 64.1255 933.874 63.8651C933.31 63.5999 932.863 63.2188 932.532 62.7216C932.2 62.2197 932.034 61.6136 932.034 60.9034C932.034 60.2784 932.158 59.7718 932.404 59.3835C932.65 58.9905 932.979 58.6828 933.391 58.4602C933.803 58.2377 934.257 58.072 934.755 57.9631C935.257 57.8494 935.761 57.7595 936.267 57.6932C936.93 57.608 937.468 57.544 937.88 57.5014C938.296 57.4541 938.599 57.3759 938.789 57.267C938.983 57.1581 939.08 56.9687 939.08 56.6989V56.642C939.08 55.9413 938.888 55.3968 938.505 55.0085C938.126 54.6203 937.551 54.4261 936.779 54.4261C935.979 54.4261 935.351 54.6013 934.897 54.9517C934.442 55.3021 934.123 55.6761 933.938 56.0739L932.347 55.5057C932.631 54.8428 933.01 54.3267 933.483 53.9574C933.962 53.5833 934.482 53.3229 935.046 53.1761C935.614 53.0246 936.173 52.9489 936.722 52.9489C937.072 52.9489 937.475 52.9915 937.929 53.0767C938.389 53.1572 938.831 53.3253 939.257 53.581C939.688 53.8366 940.046 54.2225 940.33 54.7386C940.614 55.2547 940.756 55.946 940.756 56.8125V64H939.08V62.5227H938.995C938.881 62.7595 938.692 63.0128 938.426 63.2827C938.161 63.5526 937.809 63.7822 937.368 63.9716C936.928 64.161 936.391 64.2557 935.756 64.2557ZM936.012 62.75C936.675 62.75 937.233 62.6198 937.688 62.3594C938.147 62.099 938.493 61.7628 938.725 61.3509C938.962 60.9389 939.08 60.5057 939.08 60.0511V58.517C939.009 58.6023 938.853 58.6804 938.611 58.7514C938.374 58.8177 938.1 58.8769 937.787 58.929C937.48 58.9763 937.179 59.0189 936.885 59.0568C936.596 59.09 936.362 59.1184 936.182 59.142C935.747 59.1989 935.339 59.2912 934.961 59.419C934.587 59.5421 934.283 59.7292 934.051 59.9801C933.824 60.2263 933.711 60.5625 933.711 60.9886C933.711 61.571 933.926 62.0114 934.357 62.3097C934.792 62.6032 935.344 62.75 936.012 62.75ZM943.815 64V53.0909H945.435V54.7386H945.548C945.747 54.1989 946.107 53.7609 946.628 53.4247C947.149 53.0885 947.736 52.9205 948.389 52.9205C948.512 52.9205 948.666 52.9228 948.851 52.9276C949.036 52.9323 949.175 52.9394 949.27 52.9489V54.6534C949.213 54.6392 949.083 54.6179 948.879 54.5895C948.68 54.5563 948.47 54.5398 948.247 54.5398C947.717 54.5398 947.243 54.651 946.827 54.8736C946.415 55.0914 946.088 55.3944 945.847 55.7827C945.61 56.1662 945.491 56.6042 945.491 57.0966V64H943.815ZM954.467 64.2557C953.776 64.2557 953.148 64.1255 952.585 63.8651C952.021 63.5999 951.574 63.2188 951.243 62.7216C950.911 62.2197 950.745 61.6136 950.745 60.9034C950.745 60.2784 950.868 59.7718 951.115 59.3835C951.361 58.9905 951.69 58.6828 952.102 58.4602C952.514 58.2377 952.968 58.072 953.466 57.9631C953.967 57.8494 954.472 57.7595 954.978 57.6932C955.641 57.608 956.179 57.544 956.591 57.5014C957.007 57.4541 957.31 57.3759 957.5 57.267C957.694 57.1581 957.791 56.9687 957.791 56.6989V56.642C957.791 55.9413 957.599 55.3968 957.216 55.0085C956.837 54.6203 956.261 54.4261 955.49 54.4261C954.69 54.4261 954.062 54.6013 953.608 54.9517C953.153 55.3021 952.833 55.6761 952.649 56.0739L951.058 55.5057C951.342 54.8428 951.721 54.3267 952.194 53.9574C952.672 53.5833 953.193 53.3229 953.757 53.1761C954.325 53.0246 954.884 52.9489 955.433 52.9489C955.783 52.9489 956.186 52.9915 956.64 53.0767C957.1 53.1572 957.542 53.3253 957.968 53.581C958.399 53.8366 958.757 54.2225 959.041 54.7386C959.325 55.2547 959.467 55.946 959.467 56.8125V64H957.791V62.5227H957.706C957.592 62.7595 957.403 63.0128 957.137 63.2827C956.872 63.5526 956.52 63.7822 956.079 63.9716C955.639 64.161 955.101 64.2557 954.467 64.2557ZM954.723 62.75C955.386 62.75 955.944 62.6198 956.399 62.3594C956.858 62.099 957.204 61.7628 957.436 61.3509C957.672 60.9389 957.791 60.5057 957.791 60.0511V58.517C957.72 58.6023 957.564 58.6804 957.322 58.7514C957.085 58.8177 956.811 58.8769 956.498 58.929C956.19 58.9763 955.89 59.0189 955.596 59.0568C955.307 59.09 955.073 59.1184 954.893 59.142C954.458 59.1989 954.05 59.2912 953.672 59.419C953.297 59.5421 952.994 59.7292 952.762 59.9801C952.535 60.2263 952.422 60.5625 952.422 60.9886C952.422 61.571 952.637 62.0114 953.068 62.3097C953.503 62.6032 954.055 62.75 954.723 62.75ZM964.202 57.4375V64H962.526V53.0909H964.146V54.7955H964.288C964.543 54.2415 964.932 53.7964 965.452 53.4602C965.973 53.1193 966.646 52.9489 967.469 52.9489C968.208 52.9489 968.854 53.1004 969.408 53.4034C969.962 53.7017 970.393 54.1562 970.701 54.767C971.009 55.3731 971.163 56.1402 971.163 57.0682V64H969.487V57.1818C969.487 56.3248 969.264 55.6572 968.819 55.179C968.374 54.696 967.763 54.4545 966.987 54.4545C966.451 54.4545 965.973 54.5705 965.552 54.8026C965.135 55.0346 964.806 55.3731 964.565 55.8182C964.323 56.2633 964.202 56.803 964.202 57.4375Z" fill="black"/>
</svg>
